<svg width="465" height="401" viewBox="0 0 465 401" fill="none" xmlns="http://www.w3.org/2000/svg">
<path d="M0 91.5637C13.5145 91.5637 24.4702 102.519 24.4702 116.034V215.444C10.9557 215.444 0 204.488 0 190.974V91.5637Z" fill="#8D272A"/>
<path d="M77.9985 116.034C77.9985 102.519 88.9542 91.5637 102.469 91.5637V190.974C102.469 204.488 91.5131 215.444 77.9985 215.444V116.034Z" fill="#8D272A"/>
<rect x="24.4702" y="190.209" width="53.5285" height="25.2349" fill="#B7797B"/>
<path d="M125.175 100.426C126.396 99.3327 128.273 99.4363 129.367 100.658L187.021 165.049C176.637 174.346 160.684 173.465 151.387 163.082L123.439 131.868C115.236 122.706 116.013 108.629 125.175 100.426Z" fill="#B7797B"/>
<path d="M110.116 91.5637C123.63 91.5637 134.586 102.519 134.586 116.034V215.444C121.071 215.444 110.116 204.488 110.116 190.974V91.5637Z" fill="#8D272A"/>
<path fill-rule="evenodd" clip-rule="evenodd" d="M212.046 100.089C216.533 94.8694 223.185 91.5637 230.608 91.5637V190.974C230.608 204.488 219.653 215.444 206.138 215.444V144.317L189.337 163.082C180.04 173.465 164.086 174.346 153.703 165.049L211.357 100.658C211.562 100.429 211.795 100.239 212.046 100.089Z" fill="#8D272A"/>
<path d="M0 91.5637C13.5145 91.5637 24.4702 102.519 24.4702 116.034V215.444C10.9557 215.444 0 204.488 0 190.974V91.5637Z" fill="#8D272A"/>
<path d="M77.9985 116.034C77.9985 102.519 88.9542 91.5637 102.469 91.5637V190.974C102.469 204.488 91.5131 215.444 77.9985 215.444V116.034Z" fill="#8D272A"/>
<rect x="24.4702" y="190.209" width="53.5285" height="25.2349" fill="#B7797B"/>
<path d="M255.173 100.426C256.394 99.3327 258.271 99.4363 259.365 100.658L317.019 165.049C306.636 174.346 290.682 173.465 281.385 163.082L253.437 131.868C245.234 122.706 246.011 108.629 255.173 100.426Z" fill="#B7797B"/>
<path d="M240.114 91.5637C253.628 91.5637 264.584 102.519 264.584 116.034V215.444C251.069 215.444 240.114 204.488 240.114 190.974V91.5637Z" fill="#8D272A"/>
<path fill-rule="evenodd" clip-rule="evenodd" d="M342.043 100.089C346.531 94.8694 353.182 91.5637 360.606 91.5637V190.974C360.606 204.488 349.65 215.444 336.136 215.444V144.317L319.334 163.082C310.038 173.465 294.084 174.346 283.701 165.049L341.355 100.658C341.56 100.429 341.793 100.239 342.043 100.089Z" fill="#8D272A"/>
<path d="M255.173 100.426C256.394 99.3327 258.271 99.4363 259.365 100.658L317.019 165.049C306.636 174.346 290.682 173.465 281.385 163.082L253.437 131.868C245.234 122.706 246.011 108.629 255.173 100.426Z" fill="#B7797B"/>
<path d="M240.114 91.5637C253.628 91.5637 264.584 102.519 264.584 116.034V215.444C251.069 215.444 240.114 204.488 240.114 190.974V91.5637Z" fill="#8D272A"/>
<path fill-rule="evenodd" clip-rule="evenodd" d="M342.043 100.089C346.531 94.8694 353.182 91.5637 360.606 91.5637V190.974C360.606 204.488 349.65 215.444 336.136 215.444V144.317L319.334 163.082C310.038 173.465 294.084 174.346 283.701 165.049L341.355 100.658C341.56 100.429 341.793 100.239 342.043 100.089Z" fill="#8D272A"/>
<path d="M365.624 77.6462C365.624 61.0777 379.055 47.6462 395.624 47.6462H465V61.2085C465 77.7771 451.569 91.2085 435 91.2085H365.624V77.6462Z" fill="#B7797B"/>
<path d="M357.613 79.6936C348.504 65.8536 352.339 47.2499 366.179 38.141L424.131 3.00894e-05L431.587 11.3289C440.696 25.1688 436.86 43.7726 423.02 52.8814L365.069 91.0224L357.613 79.6936Z" fill="#8D272A"/>
<path d="M43.3761 233.398C49.4085 233.398 54.6748 234.259 59.1753 235.983C63.6757 237.707 68.0803 240.34 72.3892 243.883L62.766 255.086C56.9252 250.394 50.7968 248.048 44.3815 248.048C37.0084 248.048 31.0719 251.016 26.5714 256.953C22.1669 262.89 19.9645 272.226 19.9645 284.961C19.9645 297.408 22.1669 306.649 26.5714 312.681C30.976 318.714 36.9127 321.73 44.3815 321.73C48.3074 321.73 51.8023 321.06 54.8664 319.719C57.9306 318.283 61.1861 316.272 64.6332 313.687L73.5382 324.89C70.1868 328.337 65.9259 331.209 60.7552 333.507C55.6802 335.805 49.983 336.954 43.6633 336.954C35.0456 336.954 27.4332 334.944 20.8263 330.922C14.2193 326.9 9.09653 321.012 5.45791 313.256C1.8193 305.404 0 295.972 0 284.961C0 274.141 1.86718 264.853 5.60154 257.097C9.43165 249.341 14.6023 243.452 21.1135 239.43C27.7205 235.409 35.1413 233.398 43.3761 233.398ZM106.05 235.552V334.8H87.0911V235.552H106.05ZM193.081 235.552L191.07 250.633H165.218V334.8H146.115V250.633H119.4V235.552H193.081ZM236.496 295.015H224.432V334.8H205.473V235.552H235.06C261.298 235.552 274.415 245.271 274.415 264.709C274.415 271.316 272.788 276.774 269.531 281.083C266.276 285.392 261.201 288.887 254.307 291.568L280.303 334.8H258.472L236.496 295.015ZM224.432 281.37H236.209C242.242 281.37 246.791 280.077 249.854 277.492C253.014 274.811 254.594 270.55 254.594 264.709C254.594 259.347 252.967 255.469 249.71 253.075C246.551 250.585 241.524 249.341 234.629 249.341H224.432V281.37ZM345.847 334.8L339.671 311.819H306.78L300.602 334.8H280.925L311.807 235.552H335.218L365.955 334.8H345.847ZM310.514 297.456H335.793L323.153 250.059L310.514 297.456Z" fill="#B7797B"/>
<path d="M17.508 388.66C17.508 389.301 17.601 389.776 17.787 390.086C17.9937 390.375 18.314 390.603 18.748 390.768L17.911 393.403C16.981 393.32 16.2163 393.093 15.617 392.721C15.0383 392.349 14.594 391.781 14.284 391.016C13.726 391.843 13.0233 392.463 12.176 392.876C11.3493 393.269 10.4193 393.465 9.386 393.465C7.75333 393.465 6.46167 393 5.511 392.07C4.56033 391.14 4.085 389.921 4.085 388.412C4.085 386.635 4.72567 385.281 6.007 384.351C7.309 383.4 9.15867 382.925 11.556 382.925H13.602V381.995C13.602 380.941 13.354 380.207 12.858 379.794C12.3827 379.36 11.6077 379.143 10.533 379.143C9.33433 379.143 7.88767 379.432 6.193 380.011L5.263 377.314C7.309 376.529 9.293 376.136 11.215 376.136C15.4103 376.136 17.508 378.017 17.508 381.778V388.66ZM10.44 390.582C11.7833 390.582 12.8373 389.91 13.602 388.567V385.25H11.959C9.39633 385.25 8.115 386.201 8.115 388.102C8.115 388.887 8.31133 389.497 8.704 389.931C9.09667 390.365 9.67533 390.582 10.44 390.582ZM31.0519 376.136C32.5192 376.136 33.6559 376.58 34.4619 377.469C35.2885 378.337 35.7019 379.556 35.7019 381.127V393H31.7339V381.747C31.7339 380.776 31.5582 380.094 31.2069 379.701C30.8762 379.308 30.3802 379.112 29.7189 379.112C29.0369 379.112 28.4169 379.329 27.8589 379.763C27.3215 380.176 26.7945 380.786 26.2779 381.592V393H22.3099V376.601H25.7509L26.0609 378.74C27.4042 377.004 29.0679 376.136 31.0519 376.136ZM52.0405 376.601V393H48.0725V376.601H52.0405ZM50.0255 368.293C50.7695 368.293 51.3689 368.531 51.8235 369.006C52.2989 369.461 52.5365 370.029 52.5365 370.711C52.5365 371.393 52.2989 371.961 51.8235 372.416C51.3689 372.871 50.7695 373.098 50.0255 373.098C49.3022 373.098 48.7029 372.871 48.2275 372.416C47.7729 371.961 47.5455 371.393 47.5455 370.711C47.5455 370.029 47.7729 369.461 48.2275 369.006C48.7029 368.531 49.3022 368.293 50.0255 368.293ZM74.2126 376.136C75.5352 376.136 76.5892 376.591 77.3746 377.5C78.1599 378.389 78.5526 379.598 78.5526 381.127V393H74.5846V381.747C74.5846 379.99 73.9852 379.112 72.7866 379.112C72.1459 379.112 71.5879 379.319 71.1126 379.732C70.6579 380.125 70.1826 380.745 69.6866 381.592V393H65.7186V381.747C65.7186 379.99 65.1192 379.112 63.9206 379.112C63.2592 379.112 62.6909 379.319 62.2156 379.732C61.7609 380.125 61.2856 380.745 60.7896 381.592V393H56.8216V376.601H60.2626L60.5726 378.74C61.8126 377.004 63.3936 376.136 65.3156 376.136C66.2662 376.136 67.0826 376.384 67.7646 376.88C68.4672 377.355 68.9736 378.027 69.2836 378.895C69.9449 378.006 70.6682 377.324 71.4536 376.849C72.2596 376.374 73.1792 376.136 74.2126 376.136ZM95.2805 388.66C95.2805 389.301 95.3735 389.776 95.5595 390.086C95.7661 390.375 96.0865 390.603 96.5205 390.768L95.6835 393.403C94.7535 393.32 93.9888 393.093 93.3895 392.721C92.8108 392.349 92.3665 391.781 92.0565 391.016C91.4985 391.843 90.7958 392.463 89.9485 392.876C89.1218 393.269 88.1918 393.465 87.1585 393.465C85.5258 393.465 84.2341 393 83.2835 392.07C82.3328 391.14 81.8575 389.921 81.8575 388.412C81.8575 386.635 82.4981 385.281 83.7795 384.351C85.0815 383.4 86.9311 382.925 89.3285 382.925H91.3745V381.995C91.3745 380.941 91.1265 380.207 90.6305 379.794C90.1551 379.36 89.3801 379.143 88.3055 379.143C87.1068 379.143 85.6601 379.432 83.9655 380.011L83.0355 377.314C85.0815 376.529 87.0655 376.136 88.9875 376.136C93.1828 376.136 95.2805 378.017 95.2805 381.778V388.66ZM88.2125 390.582C89.5558 390.582 90.6098 389.91 91.3745 388.567V385.25H89.7315C87.1688 385.25 85.8875 386.201 85.8875 388.102C85.8875 388.887 86.0838 389.497 86.4765 389.931C86.8691 390.365 87.4478 390.582 88.2125 390.582ZM114.04 377.469C112.986 377.841 111.405 378.027 109.297 378.027C110.309 378.482 111.053 379.05 111.529 379.732C112.025 380.393 112.273 381.23 112.273 382.243C112.273 383.318 112.004 384.268 111.467 385.095C110.95 385.922 110.185 386.573 109.173 387.048C108.181 387.523 107.013 387.761 105.67 387.761C104.926 387.761 104.275 387.678 103.717 387.513C103.262 387.823 103.035 388.226 103.035 388.722C103.035 389.487 103.696 389.869 105.019 389.869H107.53C108.728 389.869 109.772 390.065 110.661 390.458C111.57 390.851 112.273 391.409 112.769 392.132C113.265 392.835 113.513 393.63 113.513 394.519C113.513 396.172 112.81 397.454 111.405 398.363C109.999 399.293 107.974 399.758 105.329 399.758C103.427 399.758 101.929 399.562 100.834 399.169C99.7589 398.776 98.9942 398.208 98.5396 397.464C98.0849 396.72 97.8576 395.769 97.8576 394.612H101.423C101.423 395.191 101.526 395.645 101.733 395.976C101.96 396.307 102.353 396.555 102.911 396.72C103.489 396.885 104.316 396.968 105.391 396.968C106.899 396.968 107.964 396.782 108.584 396.41C109.204 396.038 109.514 395.501 109.514 394.798C109.514 394.178 109.276 393.692 108.801 393.341C108.325 393.01 107.633 392.845 106.724 392.845H104.244C102.694 392.845 101.526 392.545 100.741 391.946C99.9552 391.347 99.5626 390.592 99.5626 389.683C99.5626 389.104 99.7279 388.546 100.059 388.009C100.41 387.472 100.885 387.017 101.485 386.645C100.493 386.128 99.7589 385.498 99.2836 384.754C98.8289 383.989 98.6016 383.08 98.6016 382.026C98.6016 380.848 98.8909 379.815 99.4696 378.926C100.048 378.037 100.844 377.355 101.857 376.88C102.89 376.384 104.068 376.136 105.391 376.136C107.127 376.177 108.522 376.053 109.576 375.764C110.65 375.454 111.808 374.968 113.048 374.307L114.04 377.469ZM105.453 378.833C104.564 378.833 103.861 379.122 103.345 379.701C102.849 380.259 102.601 381.013 102.601 381.964C102.601 382.956 102.859 383.741 103.376 384.32C103.892 384.899 104.605 385.188 105.515 385.188C106.465 385.188 107.189 384.909 107.685 384.351C108.181 383.772 108.429 382.966 108.429 381.933C108.429 379.866 107.437 378.833 105.453 378.833ZM129.309 384.413C129.309 384.62 129.278 385.157 129.216 386.025H118.924C119.048 387.616 119.461 388.753 120.164 389.435C120.866 390.117 121.796 390.458 122.954 390.458C123.677 390.458 124.359 390.344 125 390.117C125.64 389.869 126.322 389.497 127.046 389.001L128.689 391.264C126.87 392.731 124.845 393.465 122.613 393.465C120.112 393.465 118.18 392.7 116.816 391.171C115.472 389.642 114.801 387.554 114.801 384.909C114.801 383.235 115.09 381.737 115.669 380.414C116.247 379.071 117.084 378.027 118.18 377.283C119.275 376.518 120.577 376.136 122.086 376.136C124.38 376.136 126.157 376.87 127.418 378.337C128.678 379.784 129.309 381.809 129.309 384.413ZM125.372 383.266C125.372 380.393 124.307 378.957 122.179 378.957C121.207 378.957 120.443 379.319 119.885 380.042C119.347 380.745 119.027 381.881 118.924 383.452H125.372V383.266ZM148.709 376.167C149.309 376.167 149.856 376.239 150.352 376.384L149.67 380.228C149.174 380.104 148.689 380.042 148.213 380.042C147.242 380.042 146.477 380.393 145.919 381.096C145.361 381.778 144.917 382.832 144.586 384.258V393H140.618V376.601H144.059L144.431 379.825C144.824 378.647 145.392 377.748 146.136 377.128C146.88 376.487 147.738 376.167 148.709 376.167ZM165.334 384.413C165.334 384.62 165.303 385.157 165.241 386.025H154.949C155.073 387.616 155.486 388.753 156.189 389.435C156.892 390.117 157.822 390.458 158.979 390.458C159.702 390.458 160.384 390.344 161.025 390.117C161.666 389.869 162.348 389.497 163.071 389.001L164.714 391.264C162.895 392.731 160.87 393.465 158.638 393.465C156.137 393.465 154.205 392.7 152.841 391.171C151.498 389.642 150.826 387.554 150.826 384.909C150.826 383.235 151.115 381.737 151.694 380.414C152.273 379.071 153.11 378.027 154.205 377.283C155.3 376.518 156.602 376.136 158.111 376.136C160.405 376.136 162.182 376.87 163.443 378.337C164.704 379.784 165.334 381.809 165.334 384.413ZM161.397 383.266C161.397 380.393 160.333 378.957 158.204 378.957C157.233 378.957 156.468 379.319 155.91 380.042C155.373 380.745 155.052 381.881 154.949 383.452H161.397V383.266ZM178.287 392.225C177.708 392.638 177.057 392.948 176.334 393.155C175.631 393.362 174.908 393.465 174.164 393.465C172.552 393.444 171.322 392.99 170.475 392.101C169.648 391.192 169.235 389.859 169.235 388.102V379.453H166.662V376.601H169.235V372.974L173.203 372.509V376.601H177.016L176.613 379.453H173.203V388.009C173.203 388.815 173.337 389.394 173.606 389.745C173.895 390.096 174.34 390.272 174.939 390.272C175.538 390.272 176.189 390.076 176.892 389.683L178.287 392.225ZM188.61 376.167C189.209 376.167 189.757 376.239 190.253 376.384L189.571 380.228C189.075 380.104 188.589 380.042 188.114 380.042C187.143 380.042 186.378 380.393 185.82 381.096C185.262 381.778 184.818 382.832 184.487 384.258V393H180.519V376.601H183.96L184.332 379.825C184.725 378.647 185.293 377.748 186.037 377.128C186.781 376.487 187.639 376.167 188.61 376.167ZM205.235 384.413C205.235 384.62 205.204 385.157 205.142 386.025H194.85C194.974 387.616 195.387 388.753 196.09 389.435C196.792 390.117 197.722 390.458 198.88 390.458C199.603 390.458 200.285 390.344 200.926 390.117C201.566 389.869 202.248 389.497 202.972 389.001L204.615 391.264C202.796 392.731 200.771 393.465 198.539 393.465C196.038 393.465 194.106 392.7 192.742 391.171C191.398 389.642 190.727 387.554 190.727 384.909C190.727 383.235 191.016 381.737 191.595 380.414C192.173 379.071 193.01 378.027 194.106 377.283C195.201 376.518 196.503 376.136 198.012 376.136C200.306 376.136 202.083 376.87 203.344 378.337C204.604 379.784 205.235 381.809 205.235 384.413ZM201.298 383.266C201.298 380.393 200.233 378.957 198.105 378.957C197.133 378.957 196.369 379.319 195.811 380.042C195.273 380.745 194.953 381.881 194.85 383.452H201.298V383.266ZM212.762 376.601V393H208.794V376.601H212.762ZM210.747 368.293C211.491 368.293 212.091 368.531 212.545 369.006C213.021 369.461 213.258 370.029 213.258 370.711C213.258 371.393 213.021 371.961 212.545 372.416C212.091 372.871 211.491 373.098 210.747 373.098C210.024 373.098 209.425 372.871 208.949 372.416C208.495 371.961 208.267 371.393 208.267 370.711C208.267 370.029 208.495 369.461 208.949 369.006C209.425 368.531 210.024 368.293 210.747 368.293ZM230.718 376.601L225.386 393H220.643L215.218 376.601H219.527L223.03 389.807L226.626 376.601H230.718ZM244.71 388.66C244.71 389.301 244.803 389.776 244.989 390.086C245.196 390.375 245.516 390.603 245.95 390.768L245.113 393.403C244.183 393.32 243.418 393.093 242.819 392.721C242.24 392.349 241.796 391.781 241.486 391.016C240.928 391.843 240.225 392.463 239.378 392.876C238.551 393.269 237.621 393.465 236.588 393.465C234.955 393.465 233.664 393 232.713 392.07C231.762 391.14 231.287 389.921 231.287 388.412C231.287 386.635 231.928 385.281 233.209 384.351C234.511 383.4 236.361 382.925 238.758 382.925H240.804V381.995C240.804 380.941 240.556 380.207 240.06 379.794C239.585 379.36 238.81 379.143 237.735 379.143C236.536 379.143 235.09 379.432 233.395 380.011L232.465 377.314C234.511 376.529 236.495 376.136 238.417 376.136C242.612 376.136 244.71 378.017 244.71 381.778V388.66ZM237.642 390.582C238.985 390.582 240.039 389.91 240.804 388.567V385.25H239.161C236.598 385.25 235.317 386.201 235.317 388.102C235.317 388.887 235.513 389.497 235.906 389.931C236.299 390.365 236.877 390.582 237.642 390.582ZM253.084 393.465C251.824 393.465 250.832 393.103 250.108 392.38C249.406 391.636 249.054 390.592 249.054 389.249V370.029L253.022 369.595V389.125C253.022 389.89 253.332 390.272 253.952 390.272C254.262 390.272 254.572 390.22 254.882 390.117L255.719 392.907C254.893 393.279 254.014 393.465 253.084 393.465ZM271.279 376.136C273.49 376.136 275.433 376.787 277.107 378.089L275.557 380.414C274.152 379.525 272.777 379.081 271.434 379.081C270.649 379.081 270.039 379.236 269.605 379.546C269.171 379.835 268.954 380.228 268.954 380.724C268.954 381.096 269.047 381.406 269.233 381.654C269.419 381.902 269.75 382.14 270.225 382.367C270.721 382.574 271.444 382.811 272.395 383.08C274.172 383.555 275.485 384.186 276.332 384.971C277.2 385.756 277.634 386.852 277.634 388.257C277.634 389.89 276.973 391.171 275.65 392.101C274.327 393.01 272.684 393.465 270.721 393.465C269.378 393.465 268.148 393.258 267.032 392.845C265.937 392.432 264.986 391.863 264.18 391.14L266.164 388.908C267.59 389.983 269.078 390.52 270.628 390.52C271.517 390.52 272.219 390.344 272.736 389.993C273.273 389.642 273.542 389.156 273.542 388.536C273.542 388.061 273.439 387.689 273.232 387.42C273.046 387.131 272.695 386.883 272.178 386.676C271.682 386.449 270.897 386.18 269.822 385.87C268.148 385.415 266.918 384.785 266.133 383.979C265.348 383.152 264.955 382.129 264.955 380.91C264.955 380.001 265.213 379.184 265.73 378.461C266.267 377.738 267.011 377.169 267.962 376.756C268.933 376.343 270.039 376.136 271.279 376.136ZM288.236 393.062C287.575 395.087 286.572 396.658 285.229 397.774C283.886 398.911 282.046 399.572 279.711 399.758L279.308 396.875C280.383 396.71 281.24 396.472 281.881 396.162C282.542 395.873 283.069 395.48 283.462 394.984C283.855 394.488 284.216 393.827 284.547 393H283.183L277.975 376.601H282.191L285.756 390.365L289.476 376.601H293.568L288.236 393.062ZM300.917 376.136C303.128 376.136 305.071 376.787 306.745 378.089L305.195 380.414C303.789 379.525 302.415 379.081 301.072 379.081C300.286 379.081 299.677 379.236 299.243 379.546C298.809 379.835 298.592 380.228 298.592 380.724C298.592 381.096 298.685 381.406 298.871 381.654C299.057 381.902 299.387 382.14 299.863 382.367C300.359 382.574 301.082 382.811 302.033 383.08C303.81 383.555 305.122 384.186 305.97 384.971C306.838 385.756 307.272 386.852 307.272 388.257C307.272 389.89 306.61 391.171 305.288 392.101C303.965 393.01 302.322 393.465 300.359 393.465C299.015 393.465 297.786 393.258 296.67 392.845C295.574 392.432 294.624 391.863 293.818 391.14L295.802 388.908C297.228 389.983 298.716 390.52 300.266 390.52C301.154 390.52 301.857 390.344 302.374 389.993C302.911 389.642 303.18 389.156 303.18 388.536C303.18 388.061 303.076 387.689 302.87 387.42C302.684 387.131 302.332 386.883 301.816 386.676C301.32 386.449 300.534 386.18 299.46 385.87C297.786 385.415 296.556 384.785 295.771 383.979C294.985 383.152 294.593 382.129 294.593 380.91C294.593 380.001 294.851 379.184 295.368 378.461C295.905 377.738 296.649 377.169 297.6 376.756C298.571 376.343 299.677 376.136 300.917 376.136ZM319.876 392.225C319.297 392.638 318.646 392.948 317.923 393.155C317.22 393.362 316.497 393.465 315.753 393.465C314.141 393.444 312.911 392.99 312.064 392.101C311.237 391.192 310.824 389.859 310.824 388.102V379.453H308.251V376.601H310.824V372.974L314.792 372.509V376.601H318.605L318.202 379.453H314.792V388.009C314.792 388.815 314.926 389.394 315.195 389.745C315.484 390.096 315.928 390.272 316.528 390.272C317.127 390.272 317.778 390.076 318.481 389.683L319.876 392.225ZM335.047 384.413C335.047 384.62 335.016 385.157 334.954 386.025H324.662C324.786 387.616 325.199 388.753 325.902 389.435C326.605 390.117 327.535 390.458 328.692 390.458C329.415 390.458 330.097 390.344 330.738 390.117C331.379 389.869 332.061 389.497 332.784 389.001L334.427 391.264C332.608 392.731 330.583 393.465 328.351 393.465C325.85 393.465 323.918 392.7 322.554 391.171C321.211 389.642 320.539 387.554 320.539 384.909C320.539 383.235 320.828 381.737 321.407 380.414C321.986 379.071 322.823 378.027 323.918 377.283C325.013 376.518 326.315 376.136 327.824 376.136C330.118 376.136 331.895 376.87 333.156 378.337C334.417 379.784 335.047 381.809 335.047 384.413ZM331.11 383.266C331.11 380.393 330.046 378.957 327.917 378.957C326.946 378.957 326.181 379.319 325.623 380.042C325.086 380.745 324.765 381.881 324.662 383.452H331.11V383.266ZM355.998 376.136C357.32 376.136 358.374 376.591 359.16 377.5C359.945 378.389 360.338 379.598 360.338 381.127V393H356.37V381.747C356.37 379.99 355.77 379.112 354.572 379.112C353.931 379.112 353.373 379.319 352.898 379.732C352.443 380.125 351.968 380.745 351.472 381.592V393H347.504V381.747C347.504 379.99 346.904 379.112 345.706 379.112C345.044 379.112 344.476 379.319 344.001 379.732C343.546 380.125 343.071 380.745 342.575 381.592V393H338.607V376.601H342.048L342.358 378.74C343.598 377.004 345.179 376.136 347.101 376.136C348.051 376.136 348.868 376.384 349.55 376.88C350.252 377.355 350.759 378.027 351.069 378.895C351.73 378.006 352.453 377.324 353.239 376.849C354.045 376.374 354.964 376.136 355.998 376.136Z" fill="#6C6B6B"/>
</svg>
