<svg width="320" height="320" viewBox="0 0 320 320" fill="none" xmlns="http://www.w3.org/2000/svg">
<circle cx="160" cy="160" r="155" stroke="#8D272A" stroke-width="10"/>
<circle cx="160" cy="160" r="149" fill="white" stroke="#B7797B" stroke-width="10"/>
<path d="M61 100V100C68.5274 100 74.6296 106.102 74.6296 113.63V169V169C67.1022 169 61 162.898 61 155.37V100Z" fill="#8D272A"/>
<path d="M104.444 113.63C104.444 106.102 110.547 100 118.074 100V100V155.37C118.074 162.898 111.972 169 104.444 169V169V113.63Z" fill="#8D272A"/>
<rect x="74.6296" y="154.944" width="29.8148" height="14.0556" fill="#B7797B"/>
<path d="M130.721 104.936C131.401 104.327 132.447 104.385 133.056 105.065L165.169 140.93V140.93C159.385 146.109 150.499 145.618 145.321 139.835L129.754 122.449C125.185 117.346 125.618 109.505 130.721 104.936V104.936Z" fill="#B7797B"/>
<path d="M122.333 100V100C129.861 100 135.963 106.102 135.963 113.63V169V169C128.436 169 122.333 162.898 122.333 155.37V100Z" fill="#8D272A"/>
<path fill-rule="evenodd" clip-rule="evenodd" d="M179.107 104.748C181.607 101.841 185.311 100 189.446 100V155.37C189.446 162.898 183.344 169 175.817 169V129.383L166.458 139.835C161.28 145.618 152.394 146.109 146.611 140.93L178.724 105.065C178.838 104.938 178.967 104.832 179.107 104.748Z" fill="#8D272A"/>
<path d="M61 100V100C68.5274 100 74.6296 106.102 74.6296 113.63V169V169C67.1022 169 61 162.898 61 155.37V100Z" fill="#8D272A"/>
<path d="M104.444 113.63C104.444 106.102 110.547 100 118.074 100V100V155.37C118.074 162.898 111.972 169 104.444 169V169V113.63Z" fill="#8D272A"/>
<rect x="74.6296" y="154.944" width="29.8148" height="14.0556" fill="#B7797B"/>
<path d="M203.128 104.936C203.809 104.327 204.854 104.385 205.463 105.065L237.576 140.93V140.93C231.793 146.109 222.907 145.618 217.729 139.835L202.162 122.449C197.593 117.346 198.026 109.505 203.128 104.936V104.936Z" fill="#B7797B"/>
<path d="M194.741 100V100C202.268 100 208.37 106.102 208.37 113.63V169V169C200.843 169 194.741 162.898 194.741 155.37V100Z" fill="#8D272A"/>
<path fill-rule="evenodd" clip-rule="evenodd" d="M251.515 104.748C254.014 101.841 257.719 100 261.854 100V155.37C261.854 162.898 255.752 169 248.224 169V129.383L238.866 139.835C233.688 145.618 224.802 146.109 219.019 140.93L251.131 105.065C251.245 104.938 251.375 104.832 251.515 104.748Z" fill="#8D272A"/>
<path d="M203.128 104.936C203.809 104.327 204.854 104.385 205.463 105.065L237.576 140.93V140.93C231.793 146.109 222.907 145.618 217.729 139.835L202.162 122.449C197.593 117.346 198.026 109.505 203.128 104.936V104.936Z" fill="#B7797B"/>
<path d="M194.741 100V100C202.268 100 208.37 106.102 208.37 113.63V169V169C200.843 169 194.741 162.898 194.741 155.37V100Z" fill="#8D272A"/>
<path fill-rule="evenodd" clip-rule="evenodd" d="M251.515 104.748C254.014 101.841 257.719 100 261.854 100V155.37C261.854 162.898 255.752 169 248.224 169V129.383L238.866 139.835C233.688 145.618 224.802 146.109 219.019 140.93L251.131 105.065C251.245 104.938 251.375 104.832 251.515 104.748Z" fill="#8D272A"/>
<path d="M264.648 99.8022C264.648 86.4017 275.512 75.5385 288.912 75.5385H320V75.5385C320 88.9389 309.137 99.8022 295.736 99.8022H264.648V99.8022Z" fill="#B7797B"/>
<path d="M264.339 99.6985C256.972 88.5048 260.074 73.4583 271.268 66.0912L297.236 49V49C304.603 60.1937 301.501 75.2402 290.308 82.6074L264.339 99.6985V99.6985Z" fill="#8D272A"/>
<path d="M85.16 179C88.52 179 91.4533 179.48 93.96 180.44C96.4667 181.4 98.92 182.867 101.32 184.84L95.96 191.08C92.7067 188.467 89.2933 187.16 85.72 187.16C81.6133 187.16 78.3067 188.813 75.8 192.12C73.3467 195.427 72.12 200.627 72.12 207.72C72.12 214.653 73.3467 219.8 75.8 223.16C78.2533 226.52 81.56 228.2 85.72 228.2C87.9067 228.2 89.8533 227.827 91.56 227.08C93.2667 226.28 95.08 225.16 97 223.72L101.96 229.96C100.093 231.88 97.72 233.48 94.84 234.76C92.0133 236.04 88.84 236.68 85.32 236.68C80.52 236.68 76.28 235.56 72.6 233.32C68.92 231.08 66.0667 227.8 64.04 223.48C62.0133 219.107 61 213.853 61 207.72C61 201.693 62.04 196.52 64.12 192.2C66.2533 187.88 69.1333 184.6 72.76 182.36C76.44 180.12 80.5733 179 85.16 179ZM120.069 180.2V235.48H109.509V180.2H120.069ZM168.544 180.2L167.424 188.6H153.024V235.48H142.384V188.6H127.504V180.2H168.544ZM192.726 213.32H186.006V235.48H175.446V180.2H191.926C206.54 180.2 213.846 185.613 213.846 196.44C213.846 200.12 212.94 203.16 211.126 205.56C209.313 207.96 206.486 209.907 202.646 211.4L217.126 235.48H204.966L192.726 213.32ZM186.006 205.72H192.566C195.926 205.72 198.46 205 200.166 203.56C201.926 202.067 202.806 199.693 202.806 196.44C202.806 193.453 201.9 191.293 200.086 189.96C198.326 188.573 195.526 187.88 191.686 187.88H186.006V205.72ZM253.633 235.48L250.193 222.68H231.873L228.432 235.48H217.472L234.673 180.2H247.713L264.833 235.48H253.633ZM233.953 214.68H248.033L240.993 188.28L233.953 214.68Z" fill="#B7797B"/>
</svg>
